<svg xmlns="http://www.w3.org/2000/svg" viewBox="0 0 64 64" role="img" aria-labelledby="title">
  <title>Pinterest</title>
  <rect width="64" height="64" rx="16" fill="#e60023"/>
  <circle cx="32" cy="32" r="18" fill="#fff"/>
  <path d="M34.2 22c-6 0-9 4.3-9 8.2 0 2.3.9 4.3 2.8 5.1.3.1.6 0 .7-.3l.7-2.6c.1-.3 0-.5-.2-.8-.5-.6-.9-1.5-.9-2.7 0-3.5 2.6-6.6 6.8-6.6 3.7 0 5.8 2.3 5.8 5.3 0 4-1.8 7.4-4.4 7.4-1.5 0-2.5-1.2-2.1-2.8.4-1.9 1.3-4 1.3-5.4 0-1.2-.7-2.2-2-2.2-1.6 0-2.9 1.7-2.9 3.9 0 1.4.5 2.4.5 2.4l-2 8.4c-.6 2.7-.1 6 .1 6.3.1.2.3.2.4.1.2-.2 2.3-2.9 3-5.5l.9-3.5c.5.9 2 1.7 3.6 1.7 4.8 0 8.1-4.4 8.1-10.2C45.9 26.1 41.2 22 34.2 22z" fill="#e60023"/>
</svg>
