<svg xmlns="http://www.w3.org/2000/svg" viewBox="0 0 64 64" role="img" aria-labelledby="title">
  <title>TikTok</title>
  <rect width="64" height="64" rx="16" fill="#111111"/>
  <path d="M37 17c1.1 3.2 3 5.5 6.5 6.4v5.8c-2.7-.1-4.9-.8-6.5-2V38c0 5.8-3.1 9-8.6 9-4.3 0-8.4-3-8.4-8.2 0-5.5 4.2-8.5 9-8.5.7 0 1.2.1 1.8.2v6.1a4.4 4.4 0 0 0-1.6-.3c-2.1 0-3.6 1.2-3.6 3.1 0 2 1.6 3.1 3.4 3.1 2.5 0 3.9-1.5 3.9-4.6V17z" fill="#25f4ee"/>
  <path d="M39 17c1.1 3.2 3 5.5 6.5 6.4v5.8c-2.7-.1-4.9-.8-6.5-2V38c0 5.8-3.1 9-8.6 9-1.5 0-2.9-.4-4.1-1.1 1 .3 1.7.4 2.4.4 2.5 0 3.9-1.5 3.9-4.6V17z" fill="#fe2c55" opacity=".9"/>
  <path d="M38 17c1.1 3.2 3 5.5 6.5 6.4v4.1c-3.1-.3-5.4-1.5-6.5-2.3V38c0 5.8-3.1 9-8.6 9-3.2 0-6.2-1.7-7.6-4.8 1.1 1 2.6 1.6 4.2 1.6 2.5 0 3.9-1.5 3.9-4.6V17z" fill="#fff"/>
</svg>
