<svg xmlns="http://www.w3.org/2000/svg" viewBox="0 0 64 64" role="img" aria-labelledby="title">
  <title>WhatsApp</title>
  <rect width="64" height="64" rx="16" fill="#25d366"/>
  <path d="M32 17c-8.8 0-16 6.9-16 15.5 0 2.8.8 5.5 2.2 7.8L16 47l7.1-2.1A16.4 16.4 0 0 0 32 48c8.8 0 16-6.9 16-15.5S40.8 17 32 17z" fill="#fff"/>
  <path d="M38 36.5c-.5 1.3-2.6 2.4-3.6 2.5-1 .1-2.2.2-7.1-1.9-6-2.6-9.6-8.8-9.9-9.2-.3-.4-2.4-3.2-2.4-6.2 0-3 1.6-4.5 2.2-5.1.6-.6 1.2-.8 1.6-.8h1.2c.4 0 .9 0 1.3 1 .5 1.2 1.7 4.1 1.9 4.4.2.3.3.7.1 1.1-.2.4-.3.7-.6 1-.3.3-.6.7-.9 1-.3.3-.6.7-.2 1.4.4.7 1.6 2.6 3.5 4.2 2.3 2 4.2 2.7 4.8 3 .6.2 1 .2 1.4-.2.4-.4 1.6-1.8 2-2.4.4-.6.8-.5 1.4-.3l4.4 2.1c.6.3 1 .5 1.1.8.2.3.2 1.7-.3 3z" fill="#25d366" transform="scale(.56) translate(25 23)"/>
</svg>
